<svg width="385" height="254" viewBox="0 0 385 254" fill="none" xmlns="http://www.w3.org/2000/svg">
<path d="M314.24 97.162L194.66 155.322C194.119 155.583 193.526 155.718 192.925 155.718C192.324 155.718 191.731 155.583 191.19 155.322L70.24 97.142C69.5768 96.8139 69.0176 96.3082 68.6246 95.6811C68.2316 95.0541 68.0203 94.3304 68.0141 93.5905C68.0078 92.8505 68.207 92.1233 68.5894 91.4898C68.9718 90.8563 69.5224 90.3413 70.18 90.002L190.44 29.852C190.994 29.5755 191.606 29.4316 192.225 29.4316C192.845 29.4316 193.456 29.5755 194.01 29.852L314.31 90.002C314.972 90.3402 315.527 90.8564 315.913 91.4926C316.298 92.1289 316.498 92.8599 316.491 93.6037C316.484 94.3474 316.269 95.0744 315.872 95.703C315.474 96.3316 314.909 96.8368 314.24 97.162Z" fill="#DBE7FF"/>
<path d="M304.79 106.442L194.72 160.002C194.143 160.281 193.511 160.426 192.87 160.426C192.229 160.426 191.597 160.281 191.02 160.002L79.72 106.432C79.004 106.088 78.3989 105.549 77.9735 104.878C77.548 104.207 77.3191 103.43 77.3129 102.636C77.3066 101.841 77.5232 101.061 77.9381 100.383C78.353 99.7056 78.9495 99.1578 79.66 98.8021L190.32 43.4621C190.911 43.1709 191.561 43.0195 192.22 43.0195C192.879 43.0195 193.529 43.1709 194.12 43.4621L304.84 98.8221C305.548 99.1779 306.143 99.7247 306.557 100.401C306.971 101.077 307.187 101.855 307.182 102.648C307.177 103.44 306.95 104.216 306.527 104.886C306.105 105.557 305.503 106.096 304.79 106.442Z" fill="#DEDAFF"/>
<path d="M294.24 107.512L192.79 158.512L90.24 107.512L188.53 56.7119C189.674 56.1143 190.945 55.8022 192.235 55.8022C193.525 55.8022 194.796 56.1143 195.94 56.7119L294.24 107.512Z" fill="#D1C3FF"/>
<path d="M190.12 0.501979L2.68002 93.562C1.88138 93.9586 1.20931 94.5704 0.739494 95.3283C0.269674 96.0862 0.020752 96.9602 0.020752 97.852C0.020752 98.7437 0.269674 99.6177 0.739494 100.376C1.20931 101.134 1.88138 101.745 2.68002 102.142L190.11 195.862C190.777 196.192 191.511 196.364 192.255 196.364C192.999 196.364 193.733 196.192 194.4 195.862L381.84 102.142C382.639 101.745 383.311 101.134 383.781 100.376C384.25 99.6177 384.499 98.7437 384.499 97.852C384.499 96.9602 384.25 96.0862 383.781 95.3283C383.311 94.5704 382.639 93.9586 381.84 93.562L194.38 0.501979C193.719 0.171848 192.989 0 192.25 0C191.511 0 190.782 0.171848 190.12 0.501979ZM71.69 89.252L190.1 30.002C190.765 29.667 191.5 29.4925 192.245 29.4925C192.99 29.4925 193.725 29.667 194.39 30.002L312.87 89.282C313.672 89.6812 314.345 90.2972 314.815 91.06C315.284 91.8229 315.53 92.702 315.525 93.5976C315.519 94.4931 315.263 95.3693 314.785 96.1266C314.307 96.884 313.626 97.4921 312.82 97.882L195.04 155.152C194.388 155.466 193.674 155.629 192.95 155.629C192.226 155.629 191.512 155.466 190.86 155.152L71.75 97.862C70.9406 97.4741 70.2565 96.8666 69.7756 96.1088C69.2947 95.351 69.0364 94.4732 69.0301 93.5757C69.0239 92.6782 69.2699 91.797 69.7402 91.0325C70.2105 90.2681 70.8861 89.6511 71.69 89.252Z" fill="#9333FF"/>
<path d="M344.9 137.662V177.802L192.1 254.002H192.09L192.1 213.862L344.9 137.662Z" fill="#DEDAFF"/>
<path d="M192.1 213.862V254.002L40.6699 177.802C40.7299 164.702 40.7933 151.602 40.8599 138.502L192.09 213.862H192.1Z" fill="#9333FF"/>
<path d="M0.240029 171.672L0.0300293 97.832L14.51 105.082L14.66 179.312C14.6644 179.631 14.5867 179.946 14.4342 180.226C14.2818 180.506 14.0598 180.743 13.7897 180.913C13.5195 181.082 13.2102 181.18 12.8916 181.195C12.5729 181.211 12.2555 181.144 11.97 181.002L3.66003 177.092C2.63593 176.604 1.77108 175.836 1.16576 174.877C0.560442 173.918 0.239457 172.806 0.240029 171.672Z" fill="#9333FF"/>
<path d="M0 168.822V228.942C0.000615262 229.165 0.05671 229.384 0.163214 229.579C0.269717 229.775 0.423272 229.941 0.61 230.062L24.24 245.292C24.44 245.409 24.667 245.471 24.8985 245.473C25.1301 245.475 25.3581 245.417 25.5602 245.304C25.7622 245.191 25.9312 245.027 26.0504 244.828C26.1696 244.63 26.235 244.404 26.24 244.172V181.812C26.2418 181.573 26.1786 181.338 26.057 181.131C25.9355 180.925 25.7602 180.756 25.55 180.642L1.94 167.642C1.7374 167.537 1.51132 167.487 1.28347 167.495C1.05561 167.503 0.833632 167.569 0.638841 167.688C0.444049 167.806 0.282987 167.973 0.171115 168.171C0.0592432 168.37 0.000319237 168.594 0 168.822Z" fill="#DEDAFF"/>
<path d="M230.54 128.052L200.75 142.532C198.566 143.584 196.174 144.13 193.75 144.13C191.326 144.13 188.934 143.584 186.75 142.532L156.53 128.002C155.903 127.695 155.375 127.218 155.005 126.626C154.636 126.034 154.44 125.35 154.44 124.652C154.44 123.954 154.636 123.27 155.005 122.678C155.375 122.086 155.903 121.609 156.53 121.302L187.68 105.722C189.506 104.809 191.519 104.334 193.56 104.334C195.601 104.334 197.614 104.809 199.44 105.722L230.63 121.312C231.26 121.626 231.79 122.111 232.156 122.712C232.523 123.314 232.713 124.006 232.703 124.71C232.694 125.415 232.486 126.102 232.103 126.693C231.72 127.284 231.179 127.755 230.54 128.052Z" fill="#0066C6"/>
<path d="M230.24 74.5221L198.04 90.1721C196.668 90.836 195.164 91.1809 193.64 91.1809C192.116 91.1809 190.612 90.836 189.24 90.1721L156.59 74.5021C155.947 74.1853 155.405 73.6947 155.026 73.0858C154.647 72.477 154.446 71.7742 154.446 71.0571C154.446 70.34 154.647 69.6372 155.026 69.0283C155.405 68.4195 155.947 67.9289 156.59 67.6121L189.42 51.1921C190.662 50.5708 192.031 50.2473 193.42 50.2473C194.809 50.2473 196.178 50.5708 197.42 51.1921L230.24 67.6321C230.883 67.9489 231.425 68.4395 231.804 69.0483C232.183 69.6572 232.384 70.36 232.384 71.0771C232.384 71.7942 232.183 72.497 231.804 73.1058C231.425 73.7147 230.883 74.2053 230.24 74.5221Z" fill="#339366"/>
<path d="M182.08 100.862L150.55 116.192C148.868 117.004 147.023 117.426 145.155 117.426C143.287 117.426 141.443 117.004 139.76 116.192L107.82 100.822C107.206 100.52 106.689 100.053 106.327 99.4721C105.966 98.8915 105.774 98.2211 105.774 97.537C105.774 96.853 105.966 96.1826 106.327 95.602C106.689 95.0213 107.206 94.5537 107.82 94.252L140.14 78.092C141.642 77.3421 143.297 76.9517 144.975 76.9517C146.653 76.9517 148.309 77.3421 149.81 78.092L182.17 94.272C182.785 94.5799 183.302 95.055 183.659 95.6428C184.017 96.2306 184.202 96.9073 184.192 97.5953C184.183 98.2833 183.98 98.9547 183.606 99.5325C183.233 100.11 182.704 100.571 182.08 100.862Z" fill="#C63333"/>
<path d="M275.12 103.612L245.89 117.822C244.284 118.599 242.524 119.003 240.74 119.003C238.956 119.003 237.196 118.599 235.59 117.822L205.97 103.572C205.119 103.161 204.399 102.52 203.894 101.722C203.388 100.923 203.116 99.9988 203.109 99.0537C203.102 98.1085 203.359 97.1802 203.853 96.374C204.346 95.5677 205.055 94.9157 205.9 94.4919L236.01 79.4319C237.408 78.7361 238.948 78.374 240.51 78.374C242.072 78.374 243.612 78.7361 245.01 79.4319L275.17 94.5119C276.021 94.9318 276.737 95.5825 277.236 96.3899C277.735 97.1972 277.996 98.1285 277.991 99.0775C277.986 100.027 277.714 100.955 277.206 101.757C276.699 102.559 275.976 103.201 275.12 103.612Z" fill="#C66633"/>
<path d="M230.54 125.002L200.75 139.492C198.566 140.544 196.174 141.09 193.75 141.09C191.326 141.09 188.934 140.544 186.75 139.492L156.53 125.002C155.903 124.695 155.375 124.218 155.005 123.626C154.636 123.034 154.44 122.35 154.44 121.652C154.44 120.954 154.636 120.27 155.005 119.678C155.375 119.086 155.903 118.609 156.53 118.302L187.68 102.722C189.506 101.809 191.519 101.334 193.56 101.334C195.601 101.334 197.614 101.809 199.44 102.722L230.63 118.322C231.247 118.639 231.764 119.123 232.122 119.718C232.48 120.313 232.664 120.996 232.655 121.69C232.646 122.384 232.443 123.062 232.069 123.647C231.695 124.232 231.166 124.702 230.54 125.002Z" fill="#0093FF"/>
<path d="M230.24 71.5121L198.04 87.1721C196.668 87.836 195.164 88.1809 193.64 88.1809C192.116 88.1809 190.612 87.836 189.24 87.1721L156.59 71.5021C155.944 71.1864 155.399 70.6956 155.019 70.0857C154.638 69.4757 154.436 68.7711 154.436 68.0521C154.436 67.3331 154.638 66.6285 155.019 66.0185C155.399 65.4086 155.944 64.9178 156.59 64.6021L189.42 48.1921C190.662 47.5708 192.031 47.2473 193.42 47.2473C194.808 47.2473 196.178 47.5708 197.42 48.1921L230.24 64.6221C230.883 64.9389 231.425 65.4295 231.804 66.0383C232.183 66.6472 232.384 67.35 232.384 68.0671C232.384 68.7842 232.183 69.487 231.804 70.0958C231.425 70.7047 230.883 71.1953 230.24 71.5121Z" fill="#33C693"/>
<path d="M182.08 97.852L150.55 113.182C148.868 113.996 147.024 114.419 145.155 114.419C143.286 114.419 141.442 113.996 139.76 113.182L107.82 97.812C107.207 97.5088 106.69 97.04 106.329 96.4586C105.968 95.8772 105.776 95.2064 105.776 94.522C105.776 93.8376 105.968 93.1669 106.329 92.5855C106.69 92.0041 107.207 91.5353 107.82 91.232L140.09 75.102C141.591 74.3521 143.247 73.9617 144.925 73.9617C146.603 73.9617 148.259 74.3521 149.76 75.102L182.12 91.282C182.732 91.5874 183.247 92.0582 183.605 92.641C183.963 93.2239 184.151 93.8954 184.146 94.5795C184.142 95.2636 183.946 95.9328 183.581 96.5112C183.216 97.0897 182.696 97.5542 182.08 97.852Z" fill="#FF3366"/>
<path d="M275.12 100.612L245.89 114.822C244.284 115.599 242.524 116.003 240.74 116.003C238.956 116.003 237.196 115.599 235.59 114.822L205.97 100.572C205.119 100.161 204.399 99.5203 203.894 98.7217C203.388 97.9232 203.116 96.999 203.109 96.0538C203.102 95.1087 203.359 94.1804 203.853 93.3741C204.346 92.5678 205.055 91.9158 205.9 91.492L236.01 76.432C237.406 75.7287 238.947 75.3623 240.51 75.3623C242.073 75.3623 243.614 75.7287 245.01 76.432L275.17 91.512C276.021 91.9319 276.737 92.5827 277.236 93.39C277.735 94.1973 277.996 95.1286 277.991 96.0777C277.986 97.0267 277.714 97.9551 277.206 98.7569C276.699 99.5587 275.976 100.202 275.12 100.612Z" fill="#FF9333"/>
</svg>
